<svg version="1.1" viewBox="0 0 640 400" xmlns="http://www.w3.org/2000/svg" xmlns:xlink="http://www.w3.org/1999/xlink" xmlns:svgjs="http://svgjs.dev/svgjs" matcher="0.5328688466173201"><g viewBox="0 0 640 400" matcher="0.5328688466173201"><g matcher="0.5328688466173201"><g matcher="0.5328688466173201"><g matcher="0.5328688466173201"><svg viewBox="0 0 640 400" preserveAspectRatio="xMidYMid meet" height="400" width="640" xmlns="http://www.w3.org/2000/svg" xmlns:xlink="http://www.w3.org/1999/xlink"><rect width="640" height="400" x="0" y="0" opacity="1" fill="#ffffff" data-fill-palette-color="background" id="background"></rect><g id="tight-bounds" transform="matrix(1,0,0,1,122.24000000000001,147.6192712540912)"><svg viewBox="0 0 395.52 104.76145749181765" height="104.76145749181765" width="395.52"><g><svg viewBox="0 0 395.52 104.76145749181765" height="104.76145749181765" width="395.52"><g><svg viewBox="0 0 395.52 104.76145749181765" height="104.76145749181765" width="395.52"><g id="textblocktransform"><svg viewBox="0 0 395.52 104.76145749181765" height="104.76145749181765" width="395.52" id="textblock"><g><svg viewBox="0 0 395.52 56.74818235642392" height="56.74818235642392" width="395.52"><g transform="matrix(1,0,0,1,0,0)"><svg width="395.52" viewBox="0.4399999976158142 -35.5 247.38999938964844 35.5" height="56.74818235642392" data-palette-color="#2a2c35"><path d="M17.94-28L17.94 0 10.96 0 10.96-28 0.44-28 0.44-35.01 28.44-35.01 28.44-28 17.94-28ZM56.15-7.01L56.15 0 32.15 0 32.15-35.01 56.15-35.01 56.15-28 39.16-28 39.16-21 50.66-21 50.66-13.99 39.16-13.99 39.16-7.01 56.15-7.01ZM95.8-25L95.8 0 88.81 0 88.81-25Q88.81-25.73 88.53-26.37 88.25-27 87.78-27.48 87.3-27.95 86.66-28.22 86.03-28.49 85.3-28.49L85.3-28.49Q84.57-28.49 83.93-28.22 83.3-27.95 82.82-27.48 82.34-27 82.08-26.37 81.81-25.73 81.81-25L81.81-25 81.81 0 74.8 0 74.8-25Q74.8-25.73 74.53-26.37 74.26-27 73.79-27.48 73.31-27.95 72.68-28.22 72.04-28.49 71.31-28.49L71.31-28.49Q70.58-28.49 69.94-28.22 69.31-27.95 68.83-27.48 68.35-27 68.09-26.37 67.82-25.73 67.82-25L67.82-25 67.82 0 60.81 0 60.81-25Q60.81-27.17 61.63-29.09 62.45-31.01 63.87-32.43 65.3-33.86 67.22-34.68 69.14-35.5 71.31-35.5L71.31-35.5Q73.26-35.5 75.07-34.8 76.87-34.11 78.32-32.79L78.32-32.79Q79.76-34.11 81.55-34.8 83.34-35.5 85.3-35.5L85.3-35.5Q87.47-35.5 89.39-34.68 91.3-33.86 92.73-32.43 94.16-31.01 94.98-29.09 95.8-27.17 95.8-25L95.8-25ZM116.06-28L109.05-28 109.05-13.99 116.06-13.99Q117.5-13.99 118.77-14.54 120.04-15.09 120.99-16.04 121.94-16.99 122.49-18.27 123.04-19.56 123.04-21L123.04-21Q123.04-22.44 122.49-23.72 121.94-25 120.99-25.95 120.04-26.9 118.77-27.45 117.5-28 116.06-28L116.06-28ZM109.05-7.01L109.05 0 102.04 0 102.04-35.01 116.06-35.01Q117.99-35.01 119.77-34.51 121.55-34.01 123.1-33.09 124.65-32.18 125.93-30.9 127.21-29.61 128.13-28.05 129.05-26.49 129.55-24.71 130.05-22.92 130.05-21L130.05-21Q130.05-18.12 128.95-15.56 127.85-13.01 125.94-11.11 124.04-9.2 121.49-8.11 118.94-7.01 116.06-7.01L116.06-7.01 109.05-7.01ZM158.66-7.01L158.66 0 134.15 0 134.15-35.01 141.15-35.01 141.15-7.01 158.66-7.01ZM168.88-13.99L182.9-13.99 182.9-21Q182.9-22.44 182.35-23.72 181.8-25 180.85-25.95 179.89-26.9 178.61-27.45 177.33-28 175.89-28L175.89-28Q174.45-28 173.17-27.45 171.89-26.9 170.93-25.95 169.98-25 169.43-23.72 168.88-22.44 168.88-21L168.88-21 168.88-13.99ZM189.9-21L189.9 0 182.9 0 182.9-7.01 168.88-7.01 168.88 0 161.9 0 161.9-21Q161.9-23.9 163-26.45 164.1-29 165.99-30.91 167.88-32.81 170.43-33.91 172.99-35.01 175.89-35.01L175.89-35.01Q178.8-35.01 181.35-33.91 183.9-32.81 185.8-30.91 187.71-29 188.81-26.45 189.9-23.9 189.9-21L189.9-21ZM209.63-28L209.63 0 202.65 0 202.65-28 192.12-28 192.12-35.01 220.13-35.01 220.13-28 209.63-28ZM247.83-7.01L247.83 0 223.84 0 223.84-35.01 247.83-35.01 247.83-28 230.84-28 230.84-21 242.34-21 242.34-13.99 230.84-13.99 230.84-7.01 247.83-7.01Z" opacity="1" transform="matrix(1,0,0,1,0,0)" fill="#2a2c35" class="wordmark-text-0" data-fill-palette-color="primary" id="text-0"></path></svg></g></svg></g></svg></g></svg></g></svg></g><defs></defs></svg><rect width="395.52" height="104.76145749181765" fill="none" stroke="none" visibility="hidden"></rect></g></svg></g></g></g></g></svg>